<?xml version="1.0" encoding="UTF-8"?>
<svg version="1.1" xmlns="http://www.w3.org/2000/svg" width="4000" height="4000">
<path d="M0 0 C1320 0 2640 0 4000 0 C4000 1320 4000 2640 4000 4000 C2680 4000 1360 4000 0 4000 C0 2680 0 1360 0 0 Z " fill="#FEFEFE" transform="translate(0,0)"/>
<path d="M0 0 C1.34964844 0.42925781 1.34964844 0.42925781 2.7265625 0.8671875 C4.82705662 1.55001067 6.91530703 2.27035746 9 3 C9 3.66 9 4.32 9 5 C9.86625 5.2165625 9.86625 5.2165625 10.75 5.4375 C12.83333333 5.95833333 14.91666667 6.47916667 17 7 C17 7.66 17 8.32 17 9 C17.69480469 9.23589844 18.38960937 9.47179688 19.10546875 9.71484375 C22.53866454 11.23916415 25.36630919 13.27150101 28.3125 15.5625 C28.88137939 16.00215088 29.45025879 16.44180176 30.03637695 16.89477539 C35.89869244 21.53657193 40.84690025 26.77035037 45 33 C45 33.99 45 34.98 45 36 C45.66 36 46.32 36 47 36 C49.85288164 41.73230171 51.53444296 46.59859065 52 53 C52.66 53 53.32 53 54 53 C56.49034603 56.86929797 56.53447844 61.04155336 56.875 65.5 C57.0377405 67.37262573 57.2033404 69.24500417 57.37109375 71.1171875 C57.46632324 72.18291992 57.56155273 73.24865234 57.65966797 74.34667969 C58.27745322 80.97834292 58.96717424 87.60191932 59.68096924 94.22387695 C59.85031527 95.80895261 60.01619886 97.39440248 60.17840576 98.98022461 C61.01431572 107.14008285 61.95188342 115.04548463 64.41625977 122.91162109 C65 125 65 125 65 128 C65.66 128 66.32 128 67 128 C67.64771508 129.91603157 68.29309948 131.83285113 68.9375 133.75 C69.29714844 134.81734375 69.65679688 135.8846875 70.02734375 136.984375 C70.77982119 139.31735725 71.44977244 141.61374995 72 144 C72.66 144 73.32 144 74 144 C74.433125 145.0725 74.86625 146.145 75.3125 147.25 C76.56682918 150.18265696 78.00063591 152.50079489 80 155 C80.45761719 155.763125 80.91523437 156.52625 81.38671875 157.3125 C97.97277541 184.94254112 125.30038312 206.12269276 156.46484375 214.37109375 C157.30144531 214.57863281 158.13804687 214.78617188 159 215 C159 215.66 159 216.32 159 217 C159.73605469 217.06058594 160.47210937 217.12117188 161.23046875 217.18359375 C162.20628906 217.26738281 163.18210937 217.35117188 164.1875 217.4375 C165.15042969 217.51871094 166.11335938 217.59992188 167.10546875 217.68359375 C170 218 170 218 172.26928711 218.50439453 C175.40672646 219.07381803 178.39783958 219.1794225 181.5859375 219.24609375 C183.47699219 219.29540039 183.47699219 219.29540039 185.40625 219.34570312 C188.04418734 219.40671841 190.68221297 219.46403254 193.3203125 219.51757812 C194.58359375 219.55173828 195.846875 219.58589844 197.1484375 219.62109375 C198.86812744 219.65867798 198.86812744 219.65867798 200.62255859 219.69702148 C204.29049262 220.02605908 207.48998901 220.9067009 211 222 C212.89853926 222.43372652 214.79711742 222.86732273 216.69726562 223.29394531 C224.84016182 225.15985921 231.69946034 227.8519661 239 232 C239 232.66 239 233.32 239 234 C239.73476562 234.26554687 240.46953125 234.53109375 241.2265625 234.8046875 C255.69168414 241.03895119 265.96233866 257.55853151 272.55859375 271.23046875 C279.25630851 288.62490013 279.03202413 314.02015205 271.83886719 331.15917969 C263.19055427 350.13714225 249.69785525 365.46027793 231 375 C230.01 375 229.02 375 228 375 C227.67 375.99 227.34 376.98 227 378 C225.03808594 378.78369141 225.03808594 378.78369141 222.484375 379.3515625 C221.56269531 379.56296875 220.64101562 379.774375 219.69140625 379.9921875 C218.72074219 380.20101562 217.75007813 380.40984375 216.75 380.625 C215.79480469 380.8415625 214.83960938 381.058125 213.85546875 381.28125 C211.24008657 381.87052943 208.62280696 382.44475827 206 383 C204.7778479 383.27565796 204.7778479 383.27565796 203.53100586 383.55688477 C200.80034405 384.03495472 198.22841553 384.14306041 195.45703125 384.17578125 C177.36516492 384.53154326 161.49488836 386.21492883 145 394 C143.76252272 394.5564788 142.52419207 395.11106258 141.28515625 395.6640625 C113.03781159 408.38723028 87.33322191 431.30530004 73 459 C72.69416992 459.58587891 72.38833984 460.17175781 72.07324219 460.77539062 C68.18407997 468.25540923 64.48774946 475.66018268 61.7890625 483.66796875 C61.22944628 485.32188402 60.60357348 486.95403744 59.93359375 488.56640625 C58.74615497 491.66169645 58.44087658 494.72491682 58 498 C57.67 498.33 57.34 498.66 57 499 C55.71818387 507.01836808 55.70545958 515.2456263 55.48242188 523.34570312 C55.11543645 533.62821926 53.5375591 542.75405814 49.375 552.1875 C49.05015625 552.94869141 48.7253125 553.70988281 48.390625 554.49414062 C47.60385947 556.33378356 46.80343164 558.16757435 46 560 C45.34 560 44.68 560 44 560 C43.7421875 560.72832031 43.484375 561.45664063 43.21875 562.20703125 C38.27540854 573.53552209 26.72778866 584.16311686 16 590 C14.93523437 590.63808594 13.87046875 591.27617187 12.7734375 591.93359375 C8.93352256 594.12958181 4.96465633 595.68648574 0.8125 597.1875 C0.11447266 597.44724609 -0.58355469 597.70699219 -1.30273438 597.97460938 C-18.35150405 604.25232 -39.36471305 603.04377015 -56 596 C-57.45723409 595.53818361 -58.91536535 595.07917203 -60.375 594.625 C-65.41288385 592.36663827 -69.60560678 589.31576943 -74 586 C-74.85078125 585.37867187 -75.7015625 584.75734375 -76.578125 584.1171875 C-91.35679019 572.91985529 -101.06393495 556.05074419 -105 538 C-105.90373628 531.18710087 -106.19360458 524.3617971 -106.4375 517.5 C-107.61665291 489.55714804 -113.03860955 464.49716886 -129 441 C-129.42764648 440.34821777 -129.85529297 439.69643555 -130.29589844 439.02490234 C-139.17834543 425.50064025 -149.45448223 413.09484764 -163 404 C-163.77601563 403.44183594 -164.55203125 402.88367187 -165.3515625 402.30859375 C-177.55738902 393.56045493 -189.74493563 387.63508228 -204 383 C-204 382.34 -204 381.68 -204 381 C-205.02154175 380.87153687 -205.02154175 380.87153687 -206.0637207 380.74047852 C-209.14705243 380.35095243 -212.22977286 379.95678098 -215.3125 379.5625 C-216.9202832 379.36043945 -216.9202832 379.36043945 -218.56054688 379.15429688 C-219.58857422 379.02216797 -220.61660156 378.89003906 -221.67578125 378.75390625 C-222.62364502 378.63345947 -223.57150879 378.5130127 -224.5480957 378.38891602 C-227 378 -227 378 -230 377 C-231.93507166 376.87298413 -233.87377199 376.79828065 -235.8125 376.75390625 C-236.97136719 376.72103516 -238.13023437 376.68816406 -239.32421875 376.65429688 C-241.74341359 376.59388128 -244.16268662 376.53650755 -246.58203125 376.48242188 C-256.53684479 376.1915701 -265.82390976 375.17561157 -275.125 371.5 C-276.22070312 371.0771875 -277.31640625 370.654375 -278.4453125 370.21875 C-281 369 -281 369 -282 367 C-283.66740119 366.2996915 -285.33594289 365.60189999 -287.01171875 364.921875 C-290.37719279 363.36145875 -293.0987923 361.3091245 -296 359 C-296 358.34 -296 357.68 -296 357 C-296.556875 356.938125 -297.11375 356.87625 -297.6875 356.8125 C-307.38294844 353.40599109 -315.40590038 337.73862374 -320 329 C-325.14102336 318.17500693 -326.3324834 307.8357304 -326.25 295.9375 C-326.25773438 294.81794922 -326.26546875 293.69839844 -326.2734375 292.54492188 C-326.25995508 286.79804211 -325.95407634 281.49318389 -324.49584961 275.92285156 C-323.9732095 273.89610933 -323.63744125 271.87917713 -323.3125 269.8125 C-319.97901569 255.56494111 -311.19804628 245.90583865 -301 236 C-300.50467773 235.51563477 -300.00935547 235.03126953 -299.49902344 234.53222656 C-293.24250906 228.47910417 -287.2223121 224.00816296 -279 221 C-278.12408203 220.64615234 -278.12408203 220.64615234 -277.23046875 220.28515625 C-258.17243418 212.72960408 -233.04753061 211.58839031 -213.91845703 219.14282227 C-206.92624005 222.26698539 -200.8861508 226.3211692 -195 231.1875 C-194.30938477 231.75484863 -193.61876953 232.32219727 -192.90722656 232.90673828 C-185.32630107 239.24316708 -178.32345543 245.97713649 -174 255 C-174 255.66 -174 256.32 -174 257 C-173.34 257 -172.68 257 -172 257 C-163.46460943 276.58373878 -163.81157731 296.03580215 -164 317 C-163.34 317 -162.68 317 -162 317 C-161.67 322.28 -161.34 327.56 -161 333 C-160.34 333 -159.68 333 -159 333 C-158.84144531 333.88300781 -158.68289063 334.76601562 -158.51953125 335.67578125 C-156.94747832 343.76186568 -154.72885048 350.67507709 -151 358 C-150.59652344 358.85335937 -150.19304687 359.70671875 -149.77734375 360.5859375 C-147.30278738 365.75783989 -144.48916992 370.43694552 -141.13671875 375.08984375 C-140 377 -140 377 -140 380 C-139.15501953 380.309375 -139.15501953 380.309375 -138.29296875 380.625 C-135.18055225 382.49138945 -133.4045705 385.11201071 -131.3125 388 C-123.58888626 398.29292368 -115.57458397 408.22968423 -103.796875 414.09765625 C-101.39726925 415.30267566 -99.89306904 417.10693096 -98 419 C-94.57216007 421.38044439 -91.06381771 422.7828891 -87.171875 424.1875 C-81.9012617 426.15924023 -76.83775489 428.54325222 -71.875 431.1875 C-68.22456837 433.05669692 -65.07371956 433.66052337 -61 434 C-61 434.66 -61 435.32 -61 436 C-54.55988822 436.80934173 -48.24961459 437.18485251 -41.76171875 437.23828125 C-40.80086868 437.246353 -39.84001862 437.25442474 -38.85005188 437.26274109 C-36.82217159 437.27649892 -34.79426896 437.28725773 -32.76635742 437.29516602 C-30.7334086 437.30661153 -28.70048802 437.3269433 -26.66772461 437.35668945 C-9.85126551 437.60183533 7.26946813 436.61143199 23 430 C23.66 429.34 24.32 428.68 25 428 C26.953125 427.21875 26.953125 427.21875 29.25 426.5 C30.05179688 426.2421875 30.85359375 425.984375 31.6796875 425.71875 C33.57389297 425.13199275 35.47370106 424.56334783 37.375 424 C39.9758582 423.22193641 39.9758582 423.22193641 41.34375 421.609375 C43.40725139 419.60427459 45.56074 418.55039396 48.125 417.25 C53.58419497 414.33699083 58.26944725 410.96981691 63 407 C63.66644531 406.45601562 64.33289062 405.91203125 65.01953125 405.3515625 C73.7318728 398.03113351 80.57263691 389.41419545 87.3125 380.3125 C87.91143066 379.50458008 88.51036133 378.69666016 89.12744141 377.86425781 C94.59488652 370.38054813 98.73001691 362.65018021 102.625 354.25 C103.40663456 352.5666759 104.1904019 350.88434007 104.9765625 349.203125 C105.31768066 348.46739258 105.65879883 347.73166016 106.01025391 346.97363281 C107 345 107 345 109 342 C113.89368389 328.04342252 114.48097256 313.42914395 114.4375 298.8125 C114.43735901 298.02530579 114.43721802 297.23811157 114.43707275 296.42706299 C114.40242211 284.65780402 113.89191848 273.22094348 110 262 C109.566875 260.39125 109.566875 260.39125 109.125 258.75 C103.08765727 238.62552422 92.11128081 219.60757145 77 205 C75.89011719 203.88044922 75.89011719 203.88044922 74.7578125 202.73828125 C71.8896153 199.89039706 68.96843036 197.11740774 66 194.375 C65.49210937 193.89804688 64.98421875 193.42109375 64.4609375 192.9296875 C61.47716935 190.17543998 58.53245801 187.98665885 55 186 C53.69869141 185.14535156 53.69869141 185.14535156 52.37109375 184.2734375 C39.4997034 175.94388263 23.44920092 167.12363947 8.125 164.9375 C3.5004772 164.23681473 -1.06944544 163.41683351 -5.6484375 162.46484375 C-6.42445313 162.31144531 -7.20046875 162.15804688 -8 162 C-8.88171875 161.82339844 -9.7634375 161.64679688 -10.671875 161.46484375 C-15.91559647 160.73244603 -21.19089463 160.68133804 -26.48046875 160.5703125 C-31.52643226 160.38654448 -35.56869392 159.67703936 -40.22705078 157.72167969 C-42.60128641 156.75524613 -44.98276126 156.26700144 -47.5 155.8125 C-48.3559375 155.65394531 -49.211875 155.49539063 -50.09375 155.33203125 C-50.7228125 155.22246094 -51.351875 155.11289063 -52 155 C-52 154.34 -52 153.68 -52 153 C-53.051875 153 -54.10375 153 -55.1875 153 C-67.12421629 151.57185716 -77.68470878 140.76261765 -85 132 C-85.85271484 131.03126953 -85.85271484 131.03126953 -86.72265625 130.04296875 C-92.54003983 123.11246394 -96.22224463 115.15358362 -100 107 C-100.44859375 106.05382813 -100.8971875 105.10765625 -101.359375 104.1328125 C-104.0193046 98.09978378 -104.81813213 92.56305798 -105 86 C-105.02046387 85.3287207 -105.04092773 84.65744141 -105.06201172 83.96582031 C-105.51063488 67.19992015 -104.01107641 52.60256484 -95 38 C-94.51660156 37.175 -94.03320312 36.35 -93.53515625 35.5 C-88.89216093 27.61799203 -84.02458609 21.83715606 -77 16 C-76.29617188 15.40832031 -75.59234375 14.81664062 -74.8671875 14.20703125 C-63.99599502 5.38149327 -52.84222452 0.31259113 -39.05078125 -1.5703125 C-36.10585362 -1.93971933 -36.10585362 -1.93971933 -33.671875 -2.5390625 C-22.5715912 -4.45402374 -10.62970214 -3.54323405 0 0 Z " fill="#6224DE" transform="translate(1172,1812)"/>
<path d="M0 0 C0 0.66 0 1.32 0 2 C0.71027344 2.19335938 1.42054688 2.38671875 2.15234375 2.5859375 C3.07144531 2.84632812 3.99054688 3.10671875 4.9375 3.375 C5.85402344 3.63023438 6.77054688 3.88546875 7.71484375 4.1484375 C10 5 10 5 11 7 C11.86625 7.1546875 11.86625 7.1546875 12.75 7.3125 C16.03968701 8.31768214 17.6038613 10.5494036 20 13 C21.20322792 13.79940485 22.41210903 14.5903338 23.625 15.375 C31.89919909 21.43121036 40.32766621 33.05643241 43 43 C43.25 46.5625 43.25 46.5625 43 49 C43.66 49 44.32 49 45 49 C47.89708047 58.0320744 48.29445094 66.55109752 48.25311279 75.92245483 C48.23291505 91.02501811 49.85437664 104.33248023 55.12792969 118.62133789 C55.97496734 120.93172082 56.73161463 123.25658959 57.4765625 125.6015625 C58.97882277 130.13686725 60.92045218 134.39159201 63 138.6875 C63.51433594 139.76741211 63.51433594 139.76741211 64.0390625 140.86914062 C65.56750004 144.06894212 67.12485211 147.24217966 68.75 150.39453125 C70 153 70 153 70 155 C70.66 155 71.32 155 72 155 C73.32644134 157.04044918 74.54846453 159.07546135 75.75 161.1875 C78.74971868 166.45365502 78.74971868 166.45365502 83 170.6875 C85.8412781 172.87765187 87.34230216 174.70582166 89.4375 177.5625 C96.52416975 186.64867157 106.4162585 194.53341559 117.046875 199.03515625 C119.17497318 200.08643675 120.33439102 201.33012023 122 203 C128.86290324 206.95446098 136.38787208 209.15819232 143.98486328 211.21240234 C147.24047832 212.10760173 150.01054556 213.0055044 153.0234375 214.578125 C156.59162169 216.28261194 159.92815247 216.76100727 163.8125 217.125 C164.58239258 217.20717773 165.35228516 217.28935547 166.14550781 217.37402344 C170.75558793 217.82542334 175.33348769 218.05692522 179.96484375 218.1328125 C198.43958381 218.44552654 216.98773981 220.20130175 232 232 C233.5778125 233.11181641 233.5778125 233.11181641 235.1875 234.24609375 C243.0105141 239.8352582 249.45740174 246.09272664 255 254 C255 254.66 255 255.32 255 256 C255.66 256 256.32 256 257 256 C257.4125 256.99 257.825 257.98 258.25 259 C259.39694612 261.70701027 260.67381927 264.2848764 262.0625 266.875 C263.8519156 270.39259645 264.7907516 273.75824079 265.5078125 277.62890625 C265.98041774 280.1466453 265.98041774 280.1466453 267.0390625 283.0703125 C268.49266218 288.07737955 268.29028319 293.13946703 268.25 298.3125 C268.25773437 299.29412109 268.26546875 300.27574219 268.2734375 301.28710938 C268.2349721 315.81741328 263.88458062 329.25077663 257 342 C256.34 342 255.68 342 255 342 C254.75378906 342.72574219 254.50757813 343.45148438 254.25390625 344.19921875 C248.02254028 358.11787731 231.63057562 368.57471151 217.9375 373.8125 C216.83277344 374.21082031 215.72804688 374.60914063 214.58984375 375.01953125 C212.10592214 375.75709612 212.10592214 375.75709612 211 377 C209.36197128 377.36978426 207.71412956 377.69668783 206.0625 378 C202.41467401 378.6503519 202.41467401 378.6503519 199 380 C194.81768694 380.24587257 190.62621467 380.18521732 186.4375 380.1875 C185.28185547 380.19974609 184.12621094 380.21199219 182.93554688 380.22460938 C167.68976719 380.25058174 154.37532691 376.05511725 142 367 C140.948125 366.319375 139.89625 365.63875 138.8125 364.9375 C127.12298204 356.88472096 116.49198194 344.64334887 112 331 C112 330.01 112 329.02 112 328 C111.34 328 110.68 328 110 328 C106.35634376 316.71459816 105.38004963 306.42039379 105.3125 294.625 C105.28337825 292.23942298 105.24898075 289.85403327 105.21000671 287.46859741 C105.1875998 286.00076953 105.17173154 284.53282374 105.16316223 283.06484985 C105.41586774 279.74870293 105.41586774 279.74870293 104 277 C103.69100369 275.29243829 103.43553098 273.57512953 103.203125 271.85546875 C100.93021988 255.39120892 100.93021988 255.39120892 95 240 C94.43435157 238.5845875 93.87179639 237.1679345 93.3125 235.75 C87.58438841 223.10232962 79.14611469 212.31220919 70 202 C69.13382616 200.95160188 68.27052062 199.90082713 67.41015625 198.84765625 C60.23752247 190.37302088 50.7458603 183.24777093 41 178 C36.12121212 175.24242424 36.12121212 175.24242424 35 173 C32.79808188 172.1163163 30.5619536 171.31701892 28.3125 170.5625 C24.75052031 169.36263567 21.38005514 168.19528525 18.03515625 166.4765625 C14.46751077 164.74095119 10.96023897 163.76759343 7.125 162.8125 C6.43664063 162.63525391 5.74828125 162.45800781 5.0390625 162.27539062 C3.36092021 161.84420129 1.68066828 161.4212362 0 161 C0 160.34 0 159.68 0 159 C-0.75925781 158.93941406 -1.51851562 158.87882812 -2.30078125 158.81640625 C-3.29464844 158.73261719 -4.28851562 158.64882812 -5.3125 158.5625 C-6.79169922 158.44068359 -6.79169922 158.44068359 -8.30078125 158.31640625 C-11 158 -11 158 -14 157 C-16.8909695 156.89067454 -19.75709034 156.83594599 -22.6484375 156.83203125 C-23.49798004 156.82870285 -24.34752258 156.82537445 -25.22280884 156.82194519 C-27.01995299 156.81688342 -28.81710654 156.81453663 -30.61425781 156.81469727 C-33.35758037 156.81251386 -36.10049875 156.79435887 -38.84375 156.77539062 C-40.59114446 156.7724559 -42.33854083 156.77047163 -44.0859375 156.76953125 C-44.9037973 156.76234573 -45.7216571 156.75516022 -46.56430054 156.74775696 C-50.87182899 156.7649515 -54.04512216 157.10656092 -58 159 C-60.56875441 159.34354162 -63.10934836 159.49904853 -65.6953125 159.65625 C-68.27121236 159.87322347 -68.27121236 159.87322347 -71 162 C-73.26997334 162.55515652 -75.54105911 162.94454848 -77.84375 163.33984375 C-80.06356024 163.82991897 -80.06356024 163.82991897 -81.421875 165.46484375 C-83.63428887 167.61701863 -85.76825299 167.89068917 -88.75 168.625 C-102.0756397 172.53385431 -113.46023143 181.1812026 -124 190 C-124.56041992 190.46325684 -125.12083984 190.92651367 -125.69824219 191.40380859 C-136.28225575 200.27754585 -144.19006868 210.66733152 -152 222 C-152.73734375 223.0415625 -153.4746875 224.083125 -154.234375 225.15625 C-156.13232102 228.21311881 -157.3893814 231.18647113 -158.625 234.5625 C-159.02976562 235.65691406 -159.43453125 236.75132812 -159.8515625 237.87890625 C-160.23054687 238.90886719 -160.60953125 239.93882812 -161 241 C-161.66046487 242.66913402 -162.32479794 244.3367729 -163 246 C-163.66 246 -164.32 246 -165 246 C-165.33 248.64 -165.66 251.28 -166 254 C-166.66 254 -167.32 254 -168 254 C-168.08564209 254.69150146 -168.17128418 255.38300293 -168.25952148 256.09545898 C-168.64776301 259.21004211 -169.04254205 262.32376177 -169.4375 265.4375 C-169.63956055 267.07041992 -169.63956055 267.07041992 -169.84570312 268.73632812 C-169.97783203 269.77080078 -170.10996094 270.80527344 -170.24609375 271.87109375 C-170.36654053 272.82943115 -170.4869873 273.78776855 -170.61108398 274.77514648 C-171 277 -171 277 -172 278 C-172.26135567 282.45139214 -172.19026386 286.91689147 -172.1875 291.375 C-172.18669434 292.68871582 -172.18588867 294.00243164 -172.18505859 295.35595703 C-172.13794327 302.90087513 -171.92799165 310.37067806 -171.125 317.875 C-171.04660889 318.60895996 -170.96821777 319.34291992 -170.88745117 320.09912109 C-170.34169115 324.55834153 -169.25149797 328.69545253 -168 333 C-167.73957864 334.80575185 -167.52444952 336.61919753 -167.375 338.4375 C-167.30023437 339.30246094 -167.22546875 340.16742187 -167.1484375 341.05859375 C-167.09945312 341.69925781 -167.05046875 342.33992188 -167 343 C-166.34 343 -165.68 343 -165 343 C-164.896875 343.61875 -164.79375 344.2375 -164.6875 344.875 C-164.12474627 347.36526484 -164.12474627 347.36526484 -161 349 C-159.32358826 352.35282349 -159 354.16119422 -159 358 C-158.34 358 -157.68 358 -157 358 C-156.6596875 358.75023437 -156.319375 359.50046875 -155.96875 360.2734375 C-152.92151339 366.70829354 -149.59728061 372.12277886 -145.0078125 377.55859375 C-142.98717887 380.0155899 -141.21241454 382.54900596 -139.4375 385.1875 C-134.53788241 392.23070029 -128.67412875 397.37644078 -122 402.6875 C-121.41855225 403.15148193 -120.83710449 403.61546387 -120.23803711 404.09350586 C-117.32198586 406.36809957 -114.41388032 408.40040944 -111.18359375 410.20703125 C-108 412 -108 412 -106.0625 414 C-100.72483215 419.17592034 -92.80510871 421.27777469 -85.953125 423.75390625 C-83.2135248 424.90990157 -81.349439 426.2293372 -79 428 C-77.00495232 428.67930852 -77.00495232 428.67930852 -74.8125 429 C-73.925625 429.15339844 -73.03875 429.30679687 -72.125 429.46484375 C-71.09375 429.64144531 -70.0625 429.81804687 -69 430 C-67.205625 430.37318359 -67.205625 430.37318359 -65.375 430.75390625 C-56.96208762 432.46010828 -48.8339417 433.2180064 -40.25 433.4375 C-31.36722767 433.68305654 -24.35061939 434.89361683 -16 438 C-14.19126901 438.45282965 -12.37868487 438.89055806 -10.5625 439.3125 C6.35213069 443.92781287 22.81614357 455.742601 33 470 C33 470.66 33 471.32 33 472 C33.66 472 34.32 472 35 472 C35.67408308 473.26691507 36.33900497 474.53870749 37 475.8125 C37.37125 476.52019531 37.7425 477.22789062 38.125 477.95703125 C39 480 39 480 39 483 C39.66 483 40.32 483 41 483 C41.8175507 485.54013909 42.62915186 488.08193231 43.4375 490.625 C43.66759766 491.33785156 43.89769531 492.05070312 44.13476562 492.78515625 C49.66625226 510.26144737 48.36581648 530.92803761 42 548 C41.34 548 40.68 548 40 548 C39.896875 548.71929688 39.79375 549.43859375 39.6875 550.1796875 C35.44295029 567.59198801 17.37748193 580.49569467 3.078125 589.3359375 C-1.60713776 591.86883336 -5.65206283 593.31458454 -11 593 C-11 593.66 -11 594.32 -11 595 C-15.85084473 596.56014073 -19.93391407 597.25589008 -25.078125 597.265625 C-25.73020935 597.26753845 -26.3822937 597.2694519 -27.05413818 597.27142334 C-28.42558175 597.27277508 -29.79703857 597.26914985 -31.16845703 597.26074219 C-33.23109846 597.25009754 -35.29285516 597.26063541 -37.35546875 597.2734375 C-47.47850033 597.28493368 -57.15287485 596.98764473 -66.1640625 592.00390625 C-68.25143494 590.81964921 -68.25143494 590.81964921 -71.625 589.5 C-84.08737306 583.96116753 -96.19824752 572.78688783 -103 561 C-103 560.34 -103 559.68 -103 559 C-103.66 559 -104.32 559 -105 559 C-106.68373612 555.00694992 -108.34728443 551.00598521 -110 547 C-110.31839844 546.24203125 -110.63679688 545.4840625 -110.96484375 544.703125 C-112.82418293 540.07790315 -113.48337675 535.90792084 -114 531 C-114.33 530.67 -114.66 530.34 -115 530 C-115.11041643 528.1481967 -115.156008 526.29248687 -115.17578125 524.4375 C-115.39995202 511.87878353 -115.85829329 499.55694142 -117.8125 487.125 C-117.96565674 486.10535156 -118.11881348 485.08570312 -118.27661133 484.03515625 C-119.27377367 478.16380114 -120.80130985 474.01171291 -124 469 C-124.70491267 466.67793475 -125.37212429 464.34406932 -126 462 C-127.82962197 457.42594508 -129.94446722 453.05717672 -132.23046875 448.69921875 C-133 447 -133 447 -133 445 C-133.66 445 -134.32 445 -135 445 C-135.28230469 444.319375 -135.56460937 443.63875 -135.85546875 442.9375 C-145.60305334 421.44136039 -164.16971453 404.41514274 -185 394 C-185 393.34 -185 392.68 -185 392 C-185.94875 391.773125 -186.8975 391.54625 -187.875 391.3125 C-192.01478983 390.14401094 -195.62868184 388.20944378 -199.43359375 386.234375 C-202.57502164 384.72342947 -205.75229216 383.66311502 -209.08984375 382.67578125 C-211 382 -211 382 -214 380 C-216.01658904 379.58483202 -216.01658904 379.58483202 -218.125 379.4375 C-222 379 -222 379 -223 378 C-225.46105838 377.60916194 -227.90078208 377.28247868 -230.375 377 C-231.13232422 376.91097412 -231.88964844 376.82194824 -232.66992188 376.73022461 C-238.27803056 376.10614454 -243.86377671 375.78753135 -249.5 375.5625 C-262.8545834 374.96823603 -275.00238348 373.23799519 -287 367 C-288.72393659 366.21753976 -290.45284699 365.44590643 -292.1875 364.6875 C-292.92355469 364.36136719 -293.65960937 364.03523438 -294.41796875 363.69921875 C-294.94003906 363.46847656 -295.46210937 363.23773437 -296 363 C-296 362.34 -296 361.68 -296 361 C-296.88945313 360.75378906 -297.77890625 360.50757813 -298.6953125 360.25390625 C-307.45885248 356.92873328 -314.08020204 348.01605684 -320 341 C-320.78375 340.0925 -321.5675 339.185 -322.375 338.25 C-324.06461069 335.91053904 -324.98335784 333.68684 -326 331 C-326.66 330.34 -327.32 329.68 -328 329 C-329.6934843 324.71648089 -330.45243535 320.56303876 -331 316 C-331.66 316 -332.32 316 -333 316 C-337.50457833 297.43694698 -336.60162358 278.49129805 -329 261 C-328.50113281 259.66001953 -328.50113281 259.66001953 -327.9921875 258.29296875 C-325.47033671 251.80658676 -321.25055812 246.45198294 -317 241 C-316.49339844 240.33742188 -315.98679687 239.67484375 -315.46484375 238.9921875 C-309.94448121 232.13402123 -300.61682102 223.549886 -291.83203125 221.4921875 C-291.22746094 221.32976562 -290.62289062 221.16734375 -290 221 C-289.67 220.34 -289.34 219.68 -289 219 C-286.49609375 218.3671875 -286.49609375 218.3671875 -283.4375 217.875 C-282.42558594 217.70742187 -281.41367187 217.53984375 -280.37109375 217.3671875 C-279.58863281 217.24601562 -278.80617188 217.12484375 -278 217 C-278 216.34 -278 215.68 -278 215 C-276.68911318 214.68080061 -275.37614752 214.37014053 -274.0625 214.0625 C-273.33160156 213.88847656 -272.60070312 213.71445313 -271.84765625 213.53515625 C-265.44929468 212.33272067 -259.05154178 211.91412862 -252.55322266 211.70898438 C-243.63613077 211.42267864 -235.17116762 210.57137317 -226.4453125 208.71875 C-222.97493294 207.99477059 -219.51326191 207.46723688 -216 207 C-215.67 206.01 -215.34 205.02 -215 204 C-212.99609375 203.19140625 -212.99609375 203.19140625 -210.4375 202.5625 C-206.26556588 201.42740111 -202.6671685 199.98668364 -198.859375 197.9609375 C-197 197 -197 197 -193.5625 195.625 C-189.87420614 193.94262034 -186.76473389 191.95224393 -183.44140625 189.65234375 C-180.90920577 187.93855047 -178.30907639 186.38544584 -175.6875 184.8125 C-170.11457329 181.29522508 -165.48016466 177.09205066 -160.7265625 172.5703125 C-158.58024817 170.54699612 -156.41806772 168.66109644 -154.125 166.8125 C-151.04490713 164.21716751 -148.79299939 161.26200972 -146.4609375 157.9921875 C-145.0837437 156.11419595 -143.62331064 154.41347579 -142.0625 152.6875 C-136.47179445 146.25818862 -132.0837581 138.92966369 -129 131 C-128.27777946 129.35110677 -127.54833835 127.70536132 -126.8125 126.0625 C-126.29623047 124.90427734 -126.29623047 124.90427734 -125.76953125 123.72265625 C-125.51558594 123.15417969 -125.26164062 122.58570313 -125 122 C-124.34 122 -123.68 122 -123 122 C-122.8453125 120.2675 -122.8453125 120.2675 -122.6875 118.5 C-122.13964887 113.98828481 -120.7225121 110.19394251 -119 106 C-118.34 106 -117.68 106 -117 106 C-117.04125 104.948125 -117.0825 103.89625 -117.125 102.8125 C-117 99 -117 99 -116.03662109 96.82861328 C-114.59173946 92.88598526 -114.50216466 89.09951187 -114.2890625 84.9296875 C-114.17752622 83.1275767 -114.06553224 81.32549418 -113.953125 79.5234375 C-113.78691553 76.70667589 -113.62580048 73.88982188 -113.47363281 71.07226562 C-112.3601146 50.91545821 -112.3601146 50.91545821 -108 42 C-107.34 42 -106.68 42 -106 42 C-105.92652344 40.97519531 -105.85304688 39.95039062 -105.77734375 38.89453125 C-104.91616172 34.579966 -103.28960106 32.00018432 -100.5625 28.6875 C-100.11511475 28.12844971 -99.66772949 27.56939941 -99.20678711 26.9934082 C-91.04632022 16.97250919 -80.4914241 4.12037325 -66.97265625 2.3515625 C-64.71039388 1.94838703 -63.00412031 1.10293869 -61 0 C-61 -0.66 -61 -1.32 -61 -2 C-41.32432284 -7.46546588 -19.24094574 -6.66478542 0 0 Z " fill="#570ADA" transform="translate(1180,1593)"/>
<path d="M0 0 C2.30772354 0.01069967 4.61466343 0.00004629 6.92236328 -0.01269531 C19.88485902 -0.0260652 32.87779619 0.74763446 45.37939453 4.44824219 C46.48879395 4.7686145 46.48879395 4.7686145 47.62060547 5.09545898 C61.11880767 9.13432496 73.43647248 14.93572239 85.44189453 22.26074219 C85.44189453 22.92074219 85.44189453 23.58074219 85.44189453 24.26074219 C86.02583984 24.53660156 86.60978516 24.81246094 87.21142578 25.09667969 C90.95135982 27.04851917 94.14206425 29.6491118 97.44189453 32.26074219 C98.13412109 32.79183594 98.82634766 33.32292969 99.53955078 33.87011719 C111.87389022 43.9883049 123.80752875 60.43573897 127.82080078 75.94042969 C128.44072313 78.25636599 129.23890286 80.41156483 130.12939453 82.63574219 C131.44189453 86.26074219 131.44189453 86.26074219 131.44189453 90.26074219 C132.10189453 90.26074219 132.76189453 90.26074219 133.44189453 90.26074219 C137.31339572 111.20832896 137.47022011 135.51279685 132.44189453 156.26074219 C131.78189453 156.26074219 131.12189453 156.26074219 130.44189453 156.26074219 C130.38130859 157.02 130.32072266 157.77925781 130.25830078 158.56152344 C130.17451172 159.55539062 130.09072266 160.54925781 130.00439453 161.57324219 C129.92318359 162.559375 129.84197266 163.54550781 129.75830078 164.56152344 C129.44189453 167.26074219 129.44189453 167.26074219 128.44189453 170.26074219 C127.78189453 170.26074219 127.12189453 170.26074219 126.44189453 170.26074219 C126.32587891 171.12699219 126.20986328 171.99324219 126.09033203 172.88574219 C125.43763547 176.28290984 124.43008104 179.0882354 123.06689453 182.26074219 C122.62216797 183.29714844 122.17744141 184.33355469 121.71923828 185.40136719 C120.37632193 188.40752856 118.97835069 191.3495621 117.44189453 194.26074219 C116.78189453 194.26074219 116.12189453 194.26074219 115.44189453 194.26074219 C115.16216797 194.99421875 114.88244141 195.72769531 114.59423828 196.48339844 C103.96736543 222.09596318 79.5334054 241.52701561 56.44189453 255.26074219 C55.45189453 255.92074219 54.46189453 256.58074219 53.44189453 257.26074219 C52.45189453 257.26074219 51.46189453 257.26074219 50.44189453 257.26074219 C50.44189453 257.92074219 50.44189453 258.58074219 50.44189453 259.26074219 C49.63353149 259.55525269 49.63353149 259.55525269 48.80883789 259.85571289 C46.33161563 260.75953913 43.85550315 261.66636969 41.37939453 262.57324219 C40.53183594 262.88197266 39.68427734 263.19070313 38.81103516 263.50878906 C35.16313179 264.84682312 31.59721987 266.188569 28.07080078 267.82714844 C22.98296639 269.83708947 17.7968227 270.82523074 12.44189453 271.88574219 C10.86021484 272.21058594 10.86021484 272.21058594 9.24658203 272.54199219 C-0.89867957 274.60155657 -10.56637278 275.44716686 -20.91064453 275.44604492 C-23.18394382 275.448243 -25.456766 275.46647349 -27.72998047 275.48535156 C-29.18570799 275.48828412 -30.6414378 275.49026984 -32.09716797 275.49121094 C-33.4089502 275.49531982 -34.72073242 275.49942871 -36.07226562 275.50366211 C-39.42664283 275.26990351 -41.53225638 274.62869676 -44.55810547 273.26074219 C-46.0406297 272.89717463 -47.53397342 272.57513912 -49.03466797 272.29589844 C-50.28135254 272.05758301 -50.28135254 272.05758301 -51.55322266 271.81445312 C-52.42108398 271.65235352 -53.28894531 271.49025391 -54.18310547 271.32324219 C-61.40441423 269.93241341 -68.51246972 268.39382457 -75.55810547 266.26074219 C-75.55810547 265.60074219 -75.55810547 264.94074219 -75.55810547 264.26074219 C-77.86810547 263.93074219 -80.17810547 263.60074219 -82.55810547 263.26074219 C-82.55810547 262.60074219 -82.55810547 261.94074219 -82.55810547 261.26074219 C-83.28255859 261.14472656 -84.00701172 261.02871094 -84.75341797 260.90917969 C-92.81830721 259.04459527 -99.81650492 253.54111037 -106.43310547 248.76074219 C-107.0632959 248.31037598 -107.69348633 247.86000977 -108.34277344 247.39599609 C-112.42294911 244.38125398 -115.39787268 241.22407044 -118.55810547 237.26074219 C-119.37666016 236.44992188 -120.19521484 235.63910156 -121.03857422 234.80371094 C-123.9177037 231.89779886 -126.38994247 228.8183169 -128.87060547 225.57324219 C-129.55219727 224.7021582 -129.55219727 224.7021582 -130.24755859 223.81347656 C-133.55810547 219.50727649 -133.55810547 219.50727649 -133.55810547 217.26074219 C-134.21810547 217.26074219 -134.87810547 217.26074219 -135.55810547 217.26074219 C-136.56542946 215.32703988 -137.56373835 213.38863913 -138.55810547 211.44824219 C-139.11498047 210.36929688 -139.67185547 209.29035156 -140.24560547 208.17871094 C-141.55810547 205.26074219 -141.55810547 205.26074219 -141.55810547 202.26074219 C-142.21810547 202.26074219 -142.87810547 202.26074219 -143.55810547 202.26074219 C-146.11318555 195.84823537 -148.05217173 189.70382585 -149.06591797 182.86621094 C-149.48332007 180.21556221 -149.48332007 180.21556221 -150.57446289 177.66381836 C-151.80313513 173.41302105 -151.8271679 169.60432786 -151.78857422 165.20605469 C-151.788116 164.34567596 -151.78765778 163.48529724 -151.78718567 162.59884644 C-151.78417523 160.78512182 -151.77632527 158.97139951 -151.76391602 157.15771484 C-151.74571021 154.40159799 -151.7434063 151.64581907 -151.74365234 148.88964844 C-151.73873413 147.12011432 -151.7329045 145.35058246 -151.72607422 143.58105469 C-151.7249614 142.76621613 -151.72384857 141.95137756 -151.72270203 141.11184692 C-151.66052749 133.50201762 -150.76916951 126.58489183 -148.55810547 119.26074219 C-148.20439049 117.59828178 -147.86215225 115.93299948 -147.55810547 114.26074219 C-146.89810547 114.26074219 -146.23810547 114.26074219 -145.55810547 114.26074219 C-145.40341797 112.80667969 -145.40341797 112.80667969 -145.24560547 111.32324219 C-144.11575656 103.52414625 -140.89577894 96.33704341 -137.55810547 89.26074219 C-137.09919922 88.24367188 -136.64029297 87.22660156 -136.16748047 86.17871094 C-129.06839232 71.10176402 -119.17588647 58.13631418 -107.55810547 46.26074219 C-106.74857422 45.4009375 -105.93904297 44.54113281 -105.10498047 43.65527344 C-87.54535222 25.38759566 -58.07232944 5.05071496 -31.99560547 4.13574219 C-31.19123047 4.17699219 -30.38685547 4.21824219 -29.55810547 4.26074219 C-29.55810547 3.60074219 -29.55810547 2.94074219 -29.55810547 2.26074219 C-19.62767266 0.51171109 -10.05667742 -0.05522146 0 0 Z " fill="#010101" transform="translate(1916.55810546875,1857.7392578125)"/>
<path d="M0 0 C2.46784678 0.01611057 4.93405694 0.00001905 7.40185547 -0.01904297 C26.27448107 -0.0426747 44.19114307 3.95494617 62.34326172 8.89111328 C63.09285156 9.09269043 63.84244141 9.29426758 64.61474609 9.50195312 C69.26593103 10.79337267 73.5595296 12.42737438 77.96826172 14.39111328 C79.29102228 14.76419959 80.62058249 15.12157743 81.96826172 15.39111328 C81.96826172 16.05111328 81.96826172 16.71111328 81.96826172 17.39111328 C83.25796875 17.79716797 83.25796875 17.79716797 84.57373047 18.21142578 C94.28244419 21.58545517 102.87555609 26.74534194 111.28076172 32.57861328 C112.02817627 33.08956543 112.77559082 33.60051758 113.5456543 34.12695312 C114.23812256 34.62018066 114.93059082 35.1134082 115.64404297 35.62158203 C116.26190674 36.05881592 116.87977051 36.4960498 117.51635742 36.9465332 C119.30948387 38.73061412 119.76944472 39.87752057 119.96826172 42.39111328 C117.79638672 44.81689453 117.79638672 44.81689453 114.96826172 47.39111328 C113.52869168 49.10125944 112.11217803 50.83105524 110.71826172 52.57861328 C107.69048288 56.32561534 104.59366238 59.96064089 101.34326172 63.51611328 C98.66677887 66.45472589 96.12081627 69.41268549 93.71826172 72.57861328 C90.45997108 76.86704265 86.95195129 80.90394929 83.40576172 84.95361328 C79.02996361 89.95346093 74.83391586 94.97919748 70.96826172 100.39111328 C67.10454577 99.75936826 64.5307736 97.9113227 61.34326172 95.70361328 C52.81267649 89.92715895 44.87103162 85.091868 35.14404297 81.56689453 C32.91370249 80.74114732 30.71133607 79.83772281 28.53466797 78.87939453 C19.93897119 75.29236225 10.30914233 72.75037792 0.96826172 72.39111328 C-0.79517578 72.31376953 -0.79517578 72.31376953 -2.59423828 72.23486328 C-9.79281364 72.06346863 -16.51224028 71.99910716 -23.03173828 75.39111328 C-25.43025149 77.3750384 -25.43025149 77.3750384 -25.46923828 81.20361328 C-25.35849052 84.43278479 -25.08582473 85.31358937 -23.15673828 88.07861328 C-17.14299713 92.52878173 -10.60285585 95.36605376 -3.49267578 97.58642578 C-0.56561908 98.54352686 2.28653664 99.64760181 5.15576172 100.76611328 C11.02613211 103.04941833 16.93337396 105.18617 22.87451172 107.27783203 C29.0961133 109.51666593 35.02080601 112.2497982 41.00732422 115.05126953 C43.93456906 116.43710622 43.93456906 116.43710622 46.96826172 117.39111328 C46.96826172 118.05111328 46.96826172 118.71111328 46.96826172 119.39111328 C47.50193359 119.51486328 48.03560547 119.63861328 48.58544922 119.76611328 C55.72733848 121.74310685 60.45094947 125.57128946 65.96826172 130.39111328 C67.02207031 131.26316406 67.02207031 131.26316406 68.09716797 132.15283203 C75.14194035 138.06713213 82.15543848 144.42523922 84.96826172 153.39111328 C84.96826172 154.71111328 84.96826172 156.03111328 84.96826172 157.39111328 C85.62826172 157.39111328 86.28826172 157.39111328 86.96826172 157.39111328 C93.80498941 178.81286006 90.38432156 201.04549289 81.96826172 221.39111328 C81.30826172 221.39111328 80.64826172 221.39111328 79.96826172 221.39111328 C79.89478516 222.08849609 79.82130859 222.78587891 79.74560547 223.50439453 C78.76165807 227.15834995 76.84938344 229.67109382 74.53076172 232.57861328 C74.08772705 233.14233643 73.64469238 233.70605957 73.18823242 234.28686523 C61.49144987 248.90113773 61.49144987 248.90113773 53.96826172 251.39111328 C53.96826172 252.05111328 53.96826172 252.71111328 53.96826172 253.39111328 C48.92743362 257.65268293 43.20468283 260.33023063 37.03466797 262.53173828 C34.79674609 263.30838193 34.79674609 263.30838193 32.96826172 265.39111328 C30.86669922 266.13720703 30.86669922 266.13720703 28.34326172 266.82861328 C25.23439964 267.68673767 22.29343389 268.65275204 19.28076172 269.82080078 C2.69981827 276.07596848 -14.33578344 276.86761397 -31.84423828 276.82861328 C-33.20884186 276.82853775 -33.20884186 276.82853775 -34.60101318 276.82846069 C-44.61551599 276.80283805 -54.18977544 276.40495214 -64.03173828 274.39111328 C-65.62795882 274.13336122 -67.22559727 273.88419334 -68.82470703 273.64501953 C-82.93097258 271.44789874 -82.93097258 271.44789874 -88.70361328 269.26611328 C-91.26979095 268.30164382 -93.87205851 267.48032149 -96.48461914 266.65161133 C-102.53563755 264.71400511 -108.27574026 262.52460695 -113.88330078 259.50439453 C-116.21272791 258.29732775 -118.58401406 257.33155469 -121.03173828 256.39111328 C-121.03173828 255.73111328 -121.03173828 255.07111328 -121.03173828 254.39111328 C-121.79486328 254.24673828 -122.55798828 254.10236328 -123.34423828 253.95361328 C-126.03173828 253.39111328 -126.03173828 253.39111328 -129.03173828 252.39111328 C-129.03173828 251.73111328 -129.03173828 251.07111328 -129.03173828 250.39111328 C-129.90701172 250.13201172 -130.78228516 249.87291016 -131.68408203 249.60595703 C-142.49679358 245.68209088 -151.49740045 236.87930648 -160.03173828 229.39111328 C-159.44270355 225.52668844 -157.64939749 223.40311217 -155.15673828 220.45361328 C-154.34333984 219.48423828 -153.52994141 218.51486328 -152.69189453 217.51611328 C-151.80551147 216.47416095 -150.91878581 215.43249999 -150.03173828 214.39111328 C-149.13412384 213.32901794 -148.23699255 212.26651408 -147.34033203 211.20361328 C-145.50320914 209.02811615 -143.66305786 206.85523265 -141.82080078 204.68408203 C-139.02587356 201.38732494 -136.24250922 198.08110632 -133.46923828 194.76611328 C-132.66357422 193.80447266 -131.85791016 192.84283203 -131.02783203 191.85205078 C-128.94613545 189.36382814 -128.94613545 189.36382814 -127.03173828 186.39111328 C-126.37173828 186.39111328 -125.71173828 186.39111328 -125.03173828 186.39111328 C-124.81646484 185.86775391 -124.60119141 185.34439453 -124.37939453 184.80517578 C-122.49137432 181.42315697 -120.00721188 178.67779618 -117.46923828 175.76611328 C-113.8860015 171.83290397 -113.8860015 171.83290397 -111.03173828 167.39111328 C-108.01366475 168.75090465 -105.87002456 170.31264438 -103.46923828 172.57861328 C-96.49068463 178.8164266 -88.46662247 183.41239433 -80.03173828 187.39111328 C-80.03173828 188.05111328 -80.03173828 188.71111328 -80.03173828 189.39111328 C-78.85611328 189.73142578 -78.85611328 189.73142578 -77.65673828 190.07861328 C-74.7209715 191.14156332 -72.31492372 192.28994839 -69.59423828 193.76611328 C-63.05374918 197.12554632 -56.12502645 198.63504518 -49.03173828 200.39111328 C-47.84966797 200.73787109 -46.66759766 201.08462891 -45.44970703 201.44189453 C-38.20811308 203.45298862 -31.18985262 203.66994387 -23.71923828 203.76611328 C-22.62933594 203.80349609 -21.53943359 203.84087891 -20.41650391 203.87939453 C-12.99159138 203.95976039 -8.11213418 202.70598137 -2.03173828 198.39111328 C-1.50713307 194.84530746 -1.19848402 191.91958504 -2.03173828 188.39111328 C-6.81361513 183.18674129 -13.40462422 180.47742697 -20.03173828 178.39111328 C-20.03173828 177.73111328 -20.03173828 177.07111328 -20.03173828 176.39111328 C-20.74458984 176.28154297 -21.45744141 176.17197266 -22.19189453 176.05908203 C-27.05498792 175.25402081 -31.49058138 174.44043037 -35.97314453 172.30126953 C-38.8503943 171.02916479 -41.80951406 170.04558074 -44.78173828 169.01611328 C-51.04725708 166.80358119 -57.02639208 164.22207247 -63.03173828 161.39111328 C-68.33927627 158.99718363 -73.67427365 156.67088547 -79.03173828 154.39111328 C-79.03173828 153.73111328 -79.03173828 153.07111328 -79.03173828 152.39111328 C-79.91216797 152.13458984 -80.79259766 151.87806641 -81.69970703 151.61376953 C-94.37576332 146.96241476 -106.53034174 134.2959472 -112.15673828 122.20361328 C-112.65431641 121.15818359 -113.15189453 120.11275391 -113.66455078 119.03564453 C-116.86982153 110.49130852 -117.32702013 102.26296092 -117.21923828 93.20361328 C-117.21859375 92.16269531 -117.21794922 91.12177734 -117.21728516 90.04931641 C-117.1868844 84.72918394 -116.95835368 79.63204999 -116.03173828 74.39111328 C-115.37173828 74.39111328 -114.71173828 74.39111328 -114.03173828 74.39111328 C-113.94923828 73.09173828 -113.86673828 71.79236328 -113.78173828 70.45361328 C-112.41446963 58.46660047 -104.13662228 46.03910806 -96.03173828 37.39111328 C-95.37173828 37.39111328 -94.71173828 37.39111328 -94.03173828 37.39111328 C-93.37173828 36.07111328 -92.71173828 34.75111328 -92.03173828 33.39111328 C-91.37173828 33.39111328 -90.71173828 33.39111328 -90.03173828 33.39111328 C-90.03173828 32.73111328 -90.03173828 32.07111328 -90.03173828 31.39111328 C-87.71922961 29.41590877 -85.40601941 27.57775015 -82.96923828 25.76611328 C-82.24841064 25.22994385 -81.52758301 24.69377441 -80.78491211 24.14135742 C-71.43517964 17.33385445 -61.72205712 11.45259604 -50.30126953 8.96142578 C-48.01423785 8.4780351 -48.01423785 8.4780351 -46.02783203 7.35986328 C-43.72027595 6.23995348 -41.82829733 5.99080967 -39.28173828 5.76611328 C-38.48251953 5.69134766 -37.68330078 5.61658203 -36.85986328 5.53955078 C-36.25658203 5.49056641 -35.65330078 5.44158203 -35.03173828 5.39111328 C-35.03173828 4.73111328 -35.03173828 4.07111328 -35.03173828 3.39111328 C-23.28248433 1.06772477 -11.97724904 -0.09251589 0 0 Z " fill="#010101" transform="translate(1662.03173828125,1856.60888671875)"/>
<path d="M0 0 C0.72261017 0.00276947 1.44522034 0.00553894 2.18972778 0.00839233 C13.86469379 0.06072045 25.3734585 0.57754579 36.9375 2.25 C37.74268066 2.3624707 38.54786133 2.47494141 39.37744141 2.59082031 C41.8171941 2.93874026 44.25265479 3.30682802 46.6875 3.6875 C47.40284912 3.79747314 48.11819824 3.90744629 48.85522461 4.02075195 C53.82113124 4.86258019 58.26872434 6.39043498 62.9375 8.25 C64.60026298 8.82393666 66.26614519 9.3890867 67.9375 9.9375 C68.700625 10.18886719 69.46375 10.44023438 70.25 10.69921875 C70.806875 10.88097656 71.36375 11.06273437 71.9375 11.25 C71.9375 11.91 71.9375 12.57 71.9375 13.25 C73.05898437 13.41435547 73.05898437 13.41435547 74.203125 13.58203125 C75.18796875 13.74058594 76.1728125 13.89914062 77.1875 14.0625 C78.16203125 14.21332031 79.1365625 14.36414062 80.140625 14.51953125 C83.1254476 15.29908687 84.58754702 16.30371992 86.9375 18.25 C92.08696749 21.37204314 97.36746081 23.97651462 102.9375 26.25 C103.5975 26.58 104.2575 26.91 104.9375 27.25 C104.9375 27.91 104.9375 28.57 104.9375 29.25 C105.65292969 29.49492188 106.36835938 29.73984375 107.10546875 29.9921875 C110.28333121 31.40359676 112.57396999 33.16281519 115.25 35.375 C116.13300781 36.09945313 117.01601562 36.82390625 117.92578125 37.5703125 C118.92158203 38.40175781 118.92158203 38.40175781 119.9375 39.25 C119.34787887 42.41678736 118.42182665 44.18283772 116.27734375 46.5703125 C115.7352124 47.18269775 115.19308105 47.79508301 114.63452148 48.42602539 C113.76355835 49.39076782 113.76355835 49.39076782 112.875 50.375 C111.67563368 51.72918622 110.47771324 53.0846544 109.28125 54.44140625 C108.41113281 55.42584717 108.41113281 55.42584717 107.5234375 56.43017578 C105.57039607 58.67124272 103.7109281 60.97480341 101.875 63.3125 C97.25584163 69.17378499 92.35979664 74.79097754 87.48974609 80.44335938 C84.9592034 83.38862769 82.44668893 86.34903559 79.9375 89.3125 C79.49301514 89.83626221 79.04853027 90.36002441 78.59057617 90.8996582 C75.98734548 93.97629398 73.44095367 97.09170776 70.9375 100.25 C67.80418888 99.65480771 66.0035792 98.71436893 63.5625 96.6875 C59.76897181 93.73299411 55.79475279 91.31094431 51.625 88.9375 C51.01414551 88.5880835 50.40329102 88.23866699 49.77392578 87.87866211 C47.18298116 86.42022376 44.76594248 85.19281416 41.9375 84.25 C41.9375 83.59 41.9375 82.93 41.9375 82.25 C38.9675 81.755 38.9675 81.755 35.9375 81.25 C35.9375 80.59 35.9375 79.93 35.9375 79.25 C35.04611328 79.08564453 35.04611328 79.08564453 34.13671875 78.91796875 C29.52955652 78.03666089 25.01346752 77.03120044 20.5 75.75 C11.85778512 73.37880734 3.71433425 72.05741502 -5.25 71.9375 C-6.37257202 71.91103394 -6.37257202 71.91103394 -7.51782227 71.8840332 C-12.98765373 71.89067208 -17.07130128 72.98325473 -22.0625 75.25 C-24.62429336 78.12231377 -25.07839722 79.47103629 -25 83.3125 C-23.88291173 86.81270992 -23.00914462 88.05890528 -20.0625 90.25 C-17.42697094 91.42414583 -14.80707763 92.33514079 -12.0625 93.25 C-12.0625 93.91 -12.0625 94.57 -12.0625 95.25 C-11.51722656 95.35957031 -10.97195312 95.46914062 -10.41015625 95.58203125 C-4.79636865 96.76236608 0.5357632 98.33117409 5.9375 100.25 C7.15179687 100.68054687 8.36609375 101.11109375 9.6171875 101.5546875 C13.05995095 102.77907953 16.49936613 104.01266306 19.9375 105.25 C19.9375 105.91 19.9375 106.57 19.9375 107.25 C21.81308594 107.58451172 21.81308594 107.58451172 23.7265625 107.92578125 C29.66230032 109.25012166 34.87659898 111.76634508 40.3125 114.4375 C41.84040161 115.18060425 41.84040161 115.18060425 43.39916992 115.9387207 C50.22790232 119.30294413 56.78674789 122.73733479 62.9375 127.25 C64.21753906 128.18392578 64.21753906 128.18392578 65.5234375 129.13671875 C76.59753212 137.60025353 86.7496255 148.88679851 89.26538086 163.1027832 C90.14501658 169.94134283 90.12119849 176.80297016 90.125 183.6875 C90.13724609 184.85087891 90.14949219 186.01425781 90.16210938 187.21289062 C90.17380328 194.13958116 89.63120147 200.52605316 87.9375 207.25 C87.2775 207.25 86.6175 207.25 85.9375 207.25 C85.793125 208.508125 85.64875 209.76625 85.5 211.0625 C85.20001314 213.67667123 84.77936703 215.72439892 83.9375 218.25 C83.2775 218.25 82.6175 218.25 81.9375 218.25 C81.85628906 218.94609375 81.77507813 219.6421875 81.69140625 220.359375 C77.91658492 234.83278322 62.55905203 246.99830142 50.9375 255.25 C50.27194092 255.73670166 49.60638184 256.22340332 48.9206543 256.72485352 C43.14281293 260.79676383 37.24902101 263.40099005 30.625 265.8125 C29.68849609 266.17279297 28.75199219 266.53308594 27.78710938 266.90429688 C11.11570204 273.09151001 -4.45770196 276.03940983 -22.23583984 275.73706055 C-25.19281525 275.68741075 -28.14811205 275.67554051 -31.10546875 275.66992188 C-40.12857942 275.61710961 -49.08008243 275.31843621 -58.0546875 274.34765625 C-58.76650177 274.27091171 -59.47831604 274.19416718 -60.21170044 274.11509705 C-64.65359231 273.57421488 -68.78512098 272.54129033 -73.0625 271.25 C-75.59940794 270.76601966 -78.1415118 270.30868536 -80.6875 269.875 C-88.03284877 268.57404562 -94.98694828 266.63678714 -102.0625 264.25 C-102.0625 263.59 -102.0625 262.93 -102.0625 262.25 C-102.97128906 262.12153687 -102.97128906 262.12153687 -103.8984375 261.99047852 C-110.71299684 260.85231606 -116.0639203 258.54803554 -122.0625 255.1875 C-122.90683594 254.72794922 -123.75117188 254.26839844 -124.62109375 253.79492188 C-126.16734229 252.95252567 -127.71070251 252.10478751 -129.25 251.24975586 C-130.5065647 250.55664804 -131.778957 249.8917715 -133.0625 249.25 C-133.0625 248.59 -133.0625 247.93 -133.0625 247.25 C-133.93261719 247.00636719 -134.80273438 246.76273438 -135.69921875 246.51171875 C-139.34248171 245.14496621 -141.81001606 243.44637639 -144.875 241.0625 C-145.90753906 240.26585938 -146.94007813 239.46921875 -148.00390625 238.6484375 C-149.01324219 237.85695313 -150.02257813 237.06546875 -151.0625 236.25 C-151.97902344 235.54101562 -152.89554688 234.83203125 -153.83984375 234.1015625 C-155.91978207 232.49149966 -157.99389821 230.87458373 -160.0625 229.25 C-159.47691938 225.61452033 -158.06283469 223.84162511 -155.5625 221.1875 C-152.53355396 217.89003037 -149.62723582 214.54496513 -146.8125 211.0625 C-143.29758899 206.72946315 -139.7051555 202.47527374 -136.0625 198.25 C-131.73550581 193.22723168 -127.48859972 188.15029892 -123.30859375 183.00390625 C-119.2688948 178.05088406 -115.1617799 173.15373149 -111.0625 168.25 C-106.7018518 169.11847167 -103.88752128 171.50645071 -100.5 174.25 C-96.14078376 177.84976532 -96.14078376 177.84976532 -91.0625 180.25 C-91.0625 180.91 -91.0625 181.57 -91.0625 182.25 C-90.39605469 182.48976563 -89.72960938 182.72953125 -89.04296875 182.9765625 C-85.30250276 184.57471704 -81.88737618 186.58344171 -78.375 188.625 C-69.44585559 193.71206575 -60.97153339 197.23035719 -50.921875 199.5390625 C-48.0625 200.25 -48.0625 200.25 -45.06640625 201.296875 C-37.19978486 203.79291612 -28.39416849 203.36198242 -20.1875 203.5 C-19.13598755 203.532146 -19.13598755 203.532146 -18.06323242 203.56494141 C-12.27786715 203.60204911 -7.5562462 202.42197249 -3.125 198.5625 C-1.43831426 194.8914781 -1.6143896 192.28299359 -2.0625 188.25 C-3.94327873 186.33743288 -3.94327873 186.33743288 -6.0625 185.25 C-6.0625 184.59 -6.0625 183.93 -6.0625 183.25 C-7.7125 182.92 -9.3625 182.59 -11.0625 182.25 C-11.0625 181.59 -11.0625 180.93 -11.0625 180.25 C-11.63097656 180.14042969 -12.19945313 180.03085938 -12.78515625 179.91796875 C-17.06996374 179.0381168 -20.94058239 178.00627699 -24.9296875 176.16015625 C-27.86000861 174.90967123 -30.86305147 173.9125935 -33.875 172.875 C-38.03869166 171.40983539 -41.97996108 169.88674162 -45.875 167.8125 C-50.98912559 165.11596105 -56.32827091 163.34973732 -61.78613281 161.49389648 C-67.46741408 159.53371439 -72.80146263 157.17136228 -78.0625 154.25 C-78.0625 153.59 -78.0625 152.93 -78.0625 152.25 C-78.84625 152.105625 -79.63 151.96125 -80.4375 151.8125 C-83.0625 151.25 -83.0625 151.25 -85.0625 150.25 C-85.0625 149.59 -85.0625 148.93 -85.0625 148.25 C-87.0425 147.59 -89.0225 146.93 -91.0625 146.25 C-91.0625 145.59 -91.0625 144.93 -91.0625 144.25 C-91.7225 144.25 -92.3825 144.25 -93.0625 144.25 C-93.0625 143.59 -93.0625 142.93 -93.0625 142.25 C-93.7946875 142.0128125 -94.526875 141.775625 -95.28125 141.53125 C-104.63038691 137.22434423 -109.69494945 126.55018342 -113.13574219 117.39404297 C-115.89445185 109.168616 -116.64728371 101.82972787 -116.5 93.1875 C-116.50708984 92.01123047 -116.51417969 90.83496094 -116.52148438 89.62304688 C-116.44150193 78.49318164 -113.7134065 68.68116142 -110.0625 58.25 C-109.4025 58.25 -108.7425 58.25 -108.0625 58.25 C-107.959375 57.52167969 -107.85625 56.79335937 -107.75 56.04296875 C-104.22689449 41.73035262 -86.18775537 26.87493524 -74.23681641 19.44750977 C-62.29525994 12.25 -62.29525994 12.25 -55.0625 12.25 C-55.0625 11.59 -55.0625 10.93 -55.0625 10.25 C-49.78201159 7.83505663 -44.55339397 6.14194313 -38.9375 4.6875 C-37.78894531 4.37522461 -37.78894531 4.37522461 -36.6171875 4.05664062 C-24.45648532 0.86645642 -12.53129395 -0.09429346 0 0 Z " fill="#010101" transform="translate(3035.0625,1856.75)"/>
<path d="M0 0 C1.29131652 0.00436926 1.29131652 0.00436926 2.60872024 0.00882679 C3.96982482 0.00754515 3.96982482 0.00754515 5.35842645 0.00623763 C8.42327684 0.00458004 11.48807344 0.01010873 14.55291885 0.01555592 C16.74023065 0.01583776 18.92754254 0.01568012 21.11485428 0.01511341 C27.07329094 0.0148253 33.03170766 0.02072417 38.99013966 0.02768737 C45.2095056 0.03391871 51.42887193 0.03452453 57.64824051 0.03571278 C68.09368363 0.03847246 78.53911989 0.04472795 88.98455948 0.05364186 C99.74530129 0.0628153 110.50604111 0.06989647 121.26678604 0.07414967 C122.26106148 0.07454375 122.26106148 0.07454375 123.2754233 0.0749458 C126.60061647 0.0762508 129.92580965 0.07751227 133.25100285 0.0787577 C160.85416943 0.08922357 188.4573278 0.10682427 216.06048721 0.12908131 C215.91268244 1.55755676 215.76174758 2.98570854 215.6095137 4.41371876 C215.52580174 5.20905459 215.44208978 6.00439041 215.3558411 6.82382733 C214.95984737 9.91458103 214.2039357 12.82892269 213.35345596 15.82439381 C212.8473378 17.62916188 212.8473378 17.62916188 212.33099502 19.4703899 C211.97360245 20.71900807 211.61620987 21.96762623 211.24798721 23.25408131 C210.87969088 24.56066415 210.51218209 25.86746923 210.14544815 27.17449147 C209.43326266 29.71151082 208.7182642 32.24766772 208.00140518 34.78337818 C206.90490963 38.68228193 205.84757098 42.58898594 204.81048721 46.50408131 C204.37156143 48.15730397 204.37156143 48.15730397 203.92376846 49.84392506 C203.2910822 52.25156825 202.66407005 54.66037338 202.04095596 57.07048756 C201.86661026 57.73838307 201.69226455 58.40627857 201.51263565 59.09441334 C201.03447804 60.92674595 200.56096209 62.76028812 200.08783096 64.59392506 C198.95130225 68.50479381 197.49049501 72.31572719 196.06048721 76.12908131 C151.84048721 76.12908131 107.62048721 76.12908131 62.06048721 76.12908131 C60.74048721 82.39908131 59.42048721 88.66908131 58.06048721 95.12908131 C56.74048721 100.07908131 55.42048721 105.02908131 54.06048721 110.12908131 C94.65048721 110.12908131 135.24048721 110.12908131 177.06048721 110.12908131 C175.76738771 117.88767832 174.44102338 124.76872084 172.06048721 132.12908131 C170.48222233 137.42091063 169.21096105 142.73164554 168.06048721 148.12908131 C167.40048721 148.12908131 166.74048721 148.12908131 166.06048721 148.12908131 C166.10173721 149.30470631 166.14298721 150.48033131 166.18548721 151.69158131 C166.20032356 155.85317805 165.37219499 159.19395798 164.06048721 163.12908131 C163.40048721 163.12908131 162.74048721 163.12908131 162.06048721 163.12908131 C162.12236221 164.28408131 162.18423721 165.43908131 162.24798721 166.62908131 C162.51533361 171.61954735 161.05278489 173.81628751 159.06048721 179.12908131 C117.81048721 179.12908131 76.56048721 179.12908131 34.06048721 179.12908131 C32.74048721 186.05908131 31.42048721 192.98908131 30.06048721 200.12908131 C29.07048721 203.09908131 29.07048721 203.09908131 28.06048721 206.12908131 C25.53914199 214.5935974 23.23902373 223.11637446 20.99017471 231.65642506 C20.0527397 235.15802054 19.05632592 238.64364582 18.06048721 242.12908131 C16.08048721 250.04908131 14.10048721 257.96908131 12.06048721 266.12908131 C-17.30951279 266.12908131 -46.67951279 266.12908131 -76.93951279 266.12908131 C-75.94951279 261.83908131 -74.95951279 257.54908131 -73.93951279 253.12908131 C-73.27951279 253.12908131 -72.61951279 253.12908131 -71.93951279 253.12908131 C-71.99880966 251.88384693 -72.05810654 250.63861256 -72.11920029 249.35564381 C-72.11689401 243.46309625 -70.64403237 238.14627218 -69.06451279 232.50408131 C-68.6603917 231.00747975 -68.6603917 231.00747975 -68.24810654 229.48064381 C-67.18119204 225.54607133 -66.0826103 221.62259872 -64.94732529 217.70720631 C-63.43299468 212.33074568 -62.07492166 206.91496764 -60.68951279 201.50408131 C-58.04481706 191.23048226 -55.23871258 181.01841728 -52.29107529 170.82830006 C-51.02875341 166.46016643 -49.80832439 162.082297 -48.62701279 157.69158131 C-48.16875107 155.9919524 -48.16875107 155.9919524 -47.70123154 154.25798756 C-46.96314916 151.22617224 -46.40928395 148.21282668 -45.93951279 145.12908131 C-45.27951279 145.12908131 -44.61951279 145.12908131 -43.93951279 145.12908131 C-43.84863388 144.25896412 -43.84863388 144.25896412 -43.75591904 143.37126881 C-43.27934718 138.92815267 -42.72942613 134.53002708 -41.93951279 130.12908131 C-41.27951279 130.12908131 -40.61951279 130.12908131 -39.93951279 130.12908131 C-39.84863388 129.25896412 -39.84863388 129.25896412 -39.75591904 128.37126881 C-39.27934718 123.92815267 -38.72942613 119.53002708 -37.93951279 115.12908131 C-37.27951279 115.12908131 -36.61951279 115.12908131 -35.93951279 115.12908131 C-35.27951279 110.17908131 -34.61951279 105.22908131 -33.93951279 100.12908131 C-33.27951279 100.12908131 -32.61951279 100.12908131 -31.93951279 100.12908131 C-31.75388779 98.37337818 -31.75388779 98.37337818 -31.56451279 96.58220631 C-31.05549607 92.54188612 -30.09823196 88.7897585 -28.93951279 84.87908131 C-26.1552691 75.23175195 -23.73633168 65.49707053 -21.31451279 55.75408131 C-21.02399033 54.58613026 -21.02399033 54.58613026 -20.72759873 53.39458424 C-19.80022246 49.66487616 -18.87452632 45.93475528 -17.95025498 42.20427662 C-16.62173087 36.84378129 -15.28171867 31.48616542 -13.93951279 26.12908131 C-13.27951279 26.12908131 -12.61951279 26.12908131 -11.93951279 26.12908131 C-11.86603623 25.13328053 -11.86603623 25.13328053 -11.79107529 24.11736256 C-11.38882679 19.36666902 -10.81086586 15.53226501 -8.93951279 11.12908131 C-8.37061184 8.50718998 -7.8770513 5.87929649 -7.40435654 3.23845631 C-6.46202522 -1.03766898 -3.89758581 0.01000933 0 0 Z " fill="#020202" transform="translate(2711.9395127892494,1861.8709186911583)"/>
<path d="M0 0 C73.59 0 147.18 0 223 0 C222.67 1.32 222.34 2.64 222 4 C221.17978713 7.51164729 220.36015893 11.02339914 219.54882812 14.53710938 C218.49166518 19.06723347 217.31121964 23.53502902 216 28 C212.43210775 40.28083673 208.99012616 52.56459295 206 65 C205.34 65 204.68 65 204 65 C203.67 68.63 203.34 72.26 203 76 C158.78 76 114.56 76 69 76 C65.91529829 87.31057292 62.95931109 98.65597416 60 110 C100.59 110 141.18 110 183 110 C180.66666667 122.83333333 180.66666667 122.83333333 179.5 128.375 C179.2628125 129.51710938 179.025625 130.65921875 178.78125 131.8359375 C178.0686453 134.72198653 177.11558029 137.25330609 176 140 C175.30266196 142.40799541 174.63848917 144.82573644 174 147.25 C173.82267334 147.91966797 173.64534668 148.58933594 173.46264648 149.27929688 C172.57309699 152.67165359 171.7514773 156.06167518 171.0625 159.5 C169.49832621 166.12473605 167.15252799 172.54241604 165 179 C123.75 179 82.5 179 40 179 C39.34 183.62 38.68 188.24 38 193 C37.24615428 196.27164068 36.47022582 199.46444589 35.5625 202.6875 C35.34368164 203.48913574 35.12486328 204.29077148 34.89941406 205.11669922 C34.46837283 206.69346969 34.03411837 208.26936634 33.59619141 209.84423828 C32.78859118 212.76443076 32.02330834 215.69557085 31.25 218.625 C30.12552301 222.87447699 30.12552301 222.87447699 29 224 C28.62702089 225.76290907 28.30119534 227.53591812 28 229.3125 C27.44149484 232.58062786 26.85262477 235.7950444 26 239 C25.34 239 24.68 239 24 239 C23.93941406 239.66386719 23.87882812 240.32773438 23.81640625 241.01171875 C22.98418278 249.78207381 22.98418278 249.78207381 22 254 C21.34 254 20.68 254 20 254 C19.855625 255.2375 19.71125 256.475 19.5625 257.75 C19.2271044 260.62481941 18.70982076 263.16071698 18 266 C-11.37 266 -40.74 266 -71 266 C-70.26384431 260.84691015 -69.80026279 258.41200766 -68 254 C-67.45768278 251.52974507 -66.96078811 249.04925324 -66.5 246.5625 C-65.63162494 241.88554522 -64.60657155 237.48039566 -63 233 C-62.34 233 -61.68 233 -61 233 C-60.97873047 232.13955078 -60.97873047 232.13955078 -60.95703125 231.26171875 C-60.58983012 224.72156885 -59.29190679 218.62218733 -57.625 212.3125 C-57.41593018 211.51739014 -57.20686035 210.72228027 -56.99145508 209.90307617 C-56.01838331 206.32598861 -54.96236713 202.90353263 -53.61328125 199.4453125 C-51.27674206 193.39925489 -49.78392692 187.06731766 -48.14819336 180.80395508 C-47.57172813 178.59781614 -46.98857922 176.39353299 -46.40429688 174.18945312 C-44.25014397 166.02059243 -42.20588857 157.83669292 -40.36585999 149.5907135 C-39.52471593 145.89900852 -38.47476739 142.48442654 -37 139 C-36.62690101 137.34178227 -36.29299023 135.67422986 -36 134 C-35.32717133 130.42559768 -34.35024175 127.37560438 -33 124 C-32.46825883 121.50746326 -32.00182288 119.01041647 -31.5625 116.5 C-31 114 -31 114 -30.0546875 111.71655273 C-28.93800872 108.84032941 -28.23277159 106.04593482 -27.5625 103.03515625 C-27.30726563 101.90529297 -27.05203125 100.77542969 -26.7890625 99.61132812 C-26.52867187 98.44021484 -26.26828125 97.26910156 -26 96.0625 C-25.48195247 93.7402622 -24.96120568 91.41862458 -24.4375 89.09765625 C-24.09525391 87.55863647 -24.09525391 87.55863647 -23.74609375 85.98852539 C-22.9817637 82.92695334 -22.02492869 79.98330227 -21 77 C-20.04249701 73.71310947 -19.1193976 70.41751496 -18.1953125 67.12109375 C-17.23286115 63.73703282 -16.18206241 60.38419816 -15.12890625 57.02734375 C-12.99610676 50.12153741 -11.13062209 43.15817695 -9.33520508 36.15917969 C-8.80730319 34.1047759 -8.27205827 32.05237463 -7.73632812 30 C-7.39279016 28.6693841 -7.04967567 27.33865878 -6.70703125 26.0078125 C-6.4025708 24.82848145 -6.09811035 23.64915039 -5.78442383 22.43408203 C-4.99241398 18.96678963 -4.45293927 15.52623486 -4 12 C-3.34 12 -2.68 12 -2 12 C-1.855625 10.7625 -1.71125 9.525 -1.5625 8.25 C-1.2271044 5.37518059 -0.70982076 2.83928302 0 0 Z " fill="#010101" transform="translate(2106,1862)"/>
<path d="M0 0 C0.95036949 0.00291284 1.90073898 0.00582568 2.87990755 0.00882679 C3.8812323 0.00797237 4.88255705 0.00711794 5.91422498 0.00623763 C9.29692284 0.0045798 12.67957199 0.01010913 16.06226534 0.01555592 C18.47617524 0.01583775 20.89008522 0.01568013 23.30399507 0.01511341 C28.51508049 0.01488509 33.72615472 0.01773644 38.93723673 0.02335125 C46.47166847 0.03146415 54.00609415 0.03408126 61.54052978 0.03533924 C73.76343594 0.03753009 85.98633545 0.04419108 98.20923799 0.05364186 C110.08553974 0.06281512 121.96183967 0.06989637 133.83814424 0.07414967 C134.93547103 0.07454375 134.93547103 0.07454375 136.05496604 0.0749458 C139.72479285 0.0762508 143.39461968 0.07751452 147.06444651 0.0787577 C177.52913763 0.08913135 207.99382068 0.10682468 238.45850557 0.12908131 C237.79850557 4.08908131 237.13850557 8.04908131 236.45850557 12.12908131 C235.79850557 12.12908131 235.13850557 12.12908131 234.45850557 12.12908131 C234.42257295 12.71826344 234.38664034 13.30744557 234.34961885 13.9144817 C233.81306259 20.76460585 232.28693458 26.99528417 230.33350557 33.56658131 C227.245588 44.23245931 224.39602165 54.9422443 221.68067354 65.70891529 C221.40368623 66.79632008 221.12669893 67.88372486 220.84131807 69.00408131 C220.47611055 70.45427662 220.47611055 70.45427662 220.1035251 71.93376881 C219.45850557 74.12908131 219.45850557 74.12908131 218.45850557 75.12908131 C216.02454538 75.22406777 213.61907605 75.25466548 211.18482393 75.2426067 C210.4238994 75.24275273 209.66297487 75.24289875 208.87899202 75.2430492 C206.35208259 75.24234993 203.82524595 75.23455686 201.29834932 75.22673756 C199.55099967 75.22487343 197.80364951 75.2234495 196.05629915 75.22244984 C191.44818623 75.21862424 186.84010462 75.2087936 182.23200411 75.19774586 C177.53342036 75.18753265 172.83483158 75.18295241 168.13623995 75.17790943 C158.9103147 75.16717136 149.68441273 75.15009444 140.45850557 75.12908131 C140.26661905 76.46610852 140.26661905 76.46610852 140.07085603 77.83014637 C139.89802599 79.00008641 139.72519594 80.17002644 139.54712862 81.3754192 C139.37795427 82.53489567 139.20877992 83.69437214 139.03447908 84.88898426 C138.44844896 88.18565403 137.53992613 90.98820144 136.26172823 94.05828053 C134.48717057 98.63329512 133.39454803 103.45212967 132.14600557 108.19158131 C131.84476778 109.32031666 131.54352998 110.44905201 131.23316377 111.61199147 C129.70955836 117.33640037 128.21273653 123.06722665 126.73975557 128.80486256 C126.47074434 129.84956715 126.20173311 130.89427174 125.92457002 131.97063404 C125.41601411 133.95207248 124.91175343 135.93461967 124.41236299 137.91838795 C124.18395723 138.81033863 123.95555147 139.70228932 123.72022432 140.62126881 C123.52388399 141.39841236 123.32754366 142.17555592 123.12525362 142.97624928 C122.45850557 145.12908131 122.45850557 145.12908131 121.4069919 147.21160084 C120.2692367 149.25649568 120.2692367 149.25649568 120.02100557 152.31658131 C119.49743336 155.86523739 118.51503384 158.92885664 117.36109346 162.30852467 C115.46316168 168.23949732 113.97013567 174.29296836 112.39600557 180.31658131 C111.8674851 182.33463453 111.33806199 184.35243472 110.80629915 186.36963612 C110.32617184 188.1914776 109.84915203 190.01413722 109.37232393 191.83684498 C108.76752599 194.0157657 108.10787157 196.18026068 107.39234346 198.32537037 C105.84700743 202.96501455 105.12932349 207.76972154 104.23975557 212.57048756 C103.56327883 215.6518391 102.65751544 218.23147411 101.45850557 221.12908131 C101.00769395 222.95431858 100.59432706 224.78900957 100.20850557 226.62908131 C98.81516486 232.85981514 97.14792736 238.98994061 95.39600557 245.12908131 C95.13851534 246.03722584 94.8810251 246.94537037 94.61573213 247.88103443 C93.63749787 251.28017703 92.67351853 254.60166277 91.33741182 257.87908131 C90.15582238 260.67626977 90.15582238 260.67626977 89.45850557 266.12908131 C60.08850557 266.12908131 30.71850557 266.12908131 0.45850557 266.12908131 C3.63497616 249.18790484 3.63497616 249.18790484 6.45850557 242.12908131 C6.79777504 239.7966037 7.13090623 237.4632266 7.45850557 235.12908131 C8.12185541 232.93645191 8.86160983 230.78648475 9.64209932 228.63298756 C10.50130148 225.99782688 11.17280782 223.33918385 11.83130831 220.64788014 C13.24306115 214.97833785 14.76797065 209.3374812 16.27100557 203.69158131 C16.53654238 202.69271397 16.53654238 202.69271397 16.80744356 201.67366749 C19.06868553 193.17785109 21.40929118 184.71414998 23.94165987 176.29460865 C25.12702062 172.33245434 26.16047324 168.38293155 26.98975557 164.33220631 C28.00392654 159.56560276 29.25978104 154.85205595 30.45850557 150.12908131 C31.11850557 150.12908131 31.77850557 150.12908131 32.45850557 150.12908131 C32.56163057 148.97408131 32.66475557 147.81908131 32.77100557 146.62908131 C33.28613882 142.00760019 34.05837422 137.45082622 34.89600557 132.87908131 C35.01822481 132.19394459 35.14044405 131.50880787 35.2663669 130.80290943 C35.97215722 127.0423632 36.89421814 123.62333374 38.45850557 120.12908131 C39.11850557 120.12908131 39.77850557 120.12908131 40.45850557 120.12908131 C40.58225557 119.03595631 40.70600557 117.94283131 40.83350557 116.81658131 C41.48620688 111.54767366 42.4711462 106.34387257 43.45850557 101.12908131 C44.11850557 101.12908131 44.77850557 101.12908131 45.45850557 101.12908131 C45.47268526 100.50904225 45.48686495 99.88900318 45.50147432 99.25017506 C45.9975158 90.03989137 48.30016793 84.60409424 51.45850557 75.12908131 C26.04850557 75.12908131 0.63850557 75.12908131 -25.54149443 75.12908131 C-24.89347435 68.64888049 -24.24528514 63.12056504 -22.47899443 57.00408131 C-22.2927249 56.33376881 -22.10645537 55.66345631 -21.9145413 54.97283131 C-21.46419058 53.35618767 -21.00395146 51.74230352 -20.54149443 50.12908131 C-19.88149443 50.12908131 -19.22149443 50.12908131 -18.54149443 50.12908131 C-18.50411162 49.45103443 -18.4667288 48.77298756 -18.42821318 48.07439381 C-18.01901493 42.28143033 -17.11239672 37.14616282 -15.30711943 31.63298756 C-14.05397571 27.5346961 -13.30340605 23.34200441 -12.54149443 19.12908131 C-11.88149443 19.12908131 -11.22149443 19.12908131 -10.54149443 19.12908131 C-10.41774443 17.82970631 -10.29399443 16.53033131 -10.16649443 15.19158131 C-8.48340648 0.01974564 -8.48340648 0.01974564 0 0 Z " fill="#020202" transform="translate(2341.5414944291115,1861.8709186911583)"/>
<path d="M0 0 C0.88816406 0.51949219 1.77632812 1.03898437 2.69140625 1.57421875 C10.40188802 6.50387103 16.69237114 13.36341353 20 22 C20.49265252 24.67788352 20.7655737 27.28065496 21 30 C21.66 30 22.32 30 23 30 C24.73632485 39.11570546 24.73632485 48.88429454 23 58 C22.34 58 21.68 58 21 58 C21.04125 59.010625 21.0825 60.02125 21.125 61.0625 C20.99426157 65.18076052 20.26749214 68.11830533 19 72 C18.34 72 17.68 72 17 72 C16.67 73.98 16.34 75.96 16 78 C15.34 78 14.68 78 14 78 C13.91878906 78.70511719 13.83757812 79.41023438 13.75390625 80.13671875 C10.85099495 91.16176528 -1.25195773 101.72163694 -10.6875 107.3125 C-22.83855764 114.09674602 -37.18049894 116.24042059 -50.80078125 113.1328125 C-53.91414075 112.18391316 -56.95617382 111.15009517 -60 110 C-61.485 109.505 -61.485 109.505 -63 109 C-63 108.34 -63 107.68 -63 107 C-63.70125 106.773125 -64.4025 106.54625 -65.125 106.3125 C-73.40390663 102.53299915 -78.47380666 95.16592143 -82 87 C-82 86.01 -82 85.02 -82 84 C-82.66 84 -83.32 84 -84 84 C-86.27417663 77.6628675 -86.26549203 71.74929033 -86.1875 65.0625 C-86.18685547 64.01642578 -86.18621094 62.97035156 -86.18554688 61.89257812 C-86.153195 56.17348538 -85.85077967 50.65598324 -85 45 C-84.34 45 -83.68 45 -83 45 C-82.8453125 43.4840625 -82.8453125 43.4840625 -82.6875 41.9375 C-81.98423887 37.90973169 -80.7422747 34.64696484 -79 31 C-78.69578125 30.26007813 -78.3915625 29.52015625 -78.078125 28.7578125 C-72.46987867 16.03765958 -60.22972443 3.77823117 -47.58984375 -2 C-33.50701685 -7.43771295 -13.05149038 -7.9435111 0 0 Z " fill="#FCFCFC" transform="translate(1940,1941)"/>
<path d="M0 0 C1.43836751 0.11458693 2.87570966 0.24209116 4.3125 0.375 C5.51326172 0.47941406 5.51326172 0.47941406 6.73828125 0.5859375 C9 1 9 1 12 3 C14.67197035 3.42114198 14.67197035 3.42114198 17.5625 3.5625 C22.80763359 3.90381679 22.80763359 3.90381679 25 5 C26.59845078 5.12917692 28.20162252 5.20234165 29.8046875 5.24609375 C31.26152954 5.29358765 31.26152954 5.29358765 32.74780273 5.34204102 C34.29576538 5.38929321 34.29576538 5.38929321 35.875 5.4375 C44.0754779 5.73153092 51.96913789 6.22112087 60 8 C60 8.33 60 8.66 60 9 C58.4792733 9.02753831 56.95839326 9.04663375 55.4375 9.0625 C54.59058594 9.07410156 53.74367188 9.08570313 52.87109375 9.09765625 C50 9 50 9 46.71484375 8.51953125 C43.27460262 8.03840394 39.95528879 7.83111089 36.49121094 7.70947266 C29.16172291 7.44781326 21.97986422 6.88019595 14.75 5.625 C14.07211426 5.5110791 13.39422852 5.3971582 12.69580078 5.27978516 C8.09868554 4.42261829 4.21213799 2.95329715 0 1 C0 0.67 0 0.34 0 0 Z " fill="#A565D9" transform="translate(897,1961)"/>
<path d="M0 0 C0.66 0.33 1.32 0.66 2 1 C-6.25 9.25 -14.5 17.5 -23 26 C-23.66 25.67 -24.32 25.34 -25 25 C-17.89116069 16.98845093 -10.72120289 9.37385423 -2.6015625 2.3828125 C-1.71147181 1.61429517 -0.83152881 0.83152881 0 0 Z " fill="#E3CFF5" transform="translate(1284,2224)"/>
<path d="M0 0 C0.33 0 0.66 0 1 0 C1.09765625 6.15234375 1.09765625 6.15234375 1 8 C0.67 8.33 0.34 8.66 0 9 C-0.08858646 11.73894085 -0.11523479 14.4525327 -0.09765625 17.19140625 C-0.0962413 18.01124496 -0.09482635 18.83108368 -0.09336853 19.67576599 C-0.08775289 22.30471382 -0.07519779 24.93357773 -0.0625 27.5625 C-0.05748701 29.34049357 -0.05292376 31.11848846 -0.04882812 32.89648438 C-0.03777839 37.26435545 -0.02050331 41.63216348 0 46 C-0.33 46 -0.66 46 -1 46 C-2.29807181 39.29728806 -2.18603982 32.62944584 -2.18530273 25.83276367 C-2.18749026 23.57256258 -2.20568291 21.31284943 -2.22460938 19.05273438 C-2.22754391 17.59895998 -2.2295283 16.1451833 -2.23046875 14.69140625 C-2.23457764 13.38373291 -2.23868652 12.07605957 -2.24291992 10.72875977 C-1.98664943 6.79507216 -1.21662234 3.72701722 0 0 Z " fill="#894AD9" transform="translate(1008,1862)"/>
<path d="M0 0 C0 3 0 3 -1.28515625 4.62573242 C-2.16494141 5.4819519 -2.16494141 5.4819519 -3.0625 6.35546875 C-3.69414063 6.97744141 -4.32578125 7.59941406 -4.9765625 8.24023438 C-5.64429688 8.88283203 -6.31203125 9.52542969 -7 10.1875 C-8.00160156 11.16879883 -8.00160156 11.16879883 -9.0234375 12.16992188 C-10.67578441 13.78686135 -12.33471601 15.39640491 -14 17 C-14.66 16.67 -15.32 16.34 -16 16 C-14.71937515 14.2925002 -13.38232443 12.62626404 -12 11 C-11.34 11 -10.68 11 -10 11 C-9.34 9.68 -8.68 8.36 -8 7 C-7.34 7 -6.68 7 -6 7 C-6 6.34 -6 5.68 -6 5 C-4.04072937 3.2856382 -2.04119788 1.61594832 0 0 Z " fill="#333333" transform="translate(1578,1883)"/>
<path d="M0 0 C0.66 0 1.32 0 2 0 C0.46356148 3.68069887 -1.78150945 5.98775204 -4.625 8.75 C-5.85089844 9.94882813 -5.85089844 9.94882813 -7.1015625 11.171875 C-7.72804688 11.77515625 -8.35453125 12.3784375 -9 13 C-9.66 12.67 -10.32 12.34 -11 12 C-9.54234835 10.37438849 -8.08385614 8.74953066 -6.625 7.125 C-5.81289062 6.22007813 -5.00078125 5.31515625 -4.1640625 4.3828125 C-2.80923795 2.89103817 -1.42494565 1.42494565 0 0 Z " fill="#DAC7F7" transform="translate(1050,1787)"/>
<path d="M0 0 C-2.79285066 1.86190044 -4.20113742 2.41797842 -7.375 3.0625 C-8.16519531 3.22621094 -8.95539063 3.38992188 -9.76953125 3.55859375 C-10.50558594 3.70425781 -11.24164062 3.84992188 -12 4 C-13.5159375 4.309375 -13.5159375 4.309375 -15.0625 4.625 C-15.701875 4.74875 -16.34125 4.8725 -17 5 C-13.11677241 -0.82484138 -6.39089762 -0.22424202 0 0 Z " fill="#A888F5" transform="translate(1131,1812)"/>
<path d="M0 0 C0.66 0.33 1.32 0.66 2 1 C0.21427748 2.83947337 -1.57802449 4.67157741 -3.375 6.5 C-3.88289063 7.02464844 -4.39078125 7.54929687 -4.9140625 8.08984375 C-6.23832604 9.43153181 -7.61605865 10.71995815 -9 12 C-9.66 12 -10.32 12 -11 12 C-11 11.34 -11 10.68 -11 10 C-9.35546875 8.37890625 -9.35546875 8.37890625 -7.1875 6.5625 C-4.68897282 4.45536324 -2.2757944 2.34758602 0 0 Z " fill="#7E51EB" transform="translate(1098,1825)"/>
<path d="M0 0 C6.55925943 0.38979206 11.94526627 1.42113193 18 4 C14.28791989 5.33599018 11.63663132 4.6625666 7.875 3.6875 C6.82054688 3.42324219 5.76609375 3.15898438 4.6796875 2.88671875 C2 2 2 2 0 0 Z " fill="#797979" transform="translate(3080,1861)"/>
<path d="M0 0 C5.66442374 0.36504064 10.00703705 1.0554321 15 4 C11.21180727 5.43410153 8.93478721 4.51009497 5.25 3.0625 C3.77273438 2.49208984 3.77273438 2.49208984 2.265625 1.91015625 C1.51796875 1.60980469 0.7703125 1.30945312 0 1 C0 0.67 0 0.34 0 0 Z " fill="#B077DE" transform="translate(897,1961)"/>
<path d="M0 0 C0.33 0 0.66 0 1 0 C1 2.64 1 5.28 1 8 C0.34 8 -0.32 8 -1 8 C-1.33 10.31 -1.66 12.62 -2 15 C-3.60728272 10.9817932 -2.27930357 7.98005555 -1 4 C-0.65864073 2.66869885 -0.32074044 1.33641852 0 0 Z " fill="#909090" transform="translate(2639,2107)"/>
<path d="M0 0 C0.66 0 1.32 0 2 0 C0.32598022 3.95677402 -2.13149285 6.84464213 -5 10 C-5.66 10 -6.32 10 -7 10 C-5.32598022 6.04322598 -2.86850715 3.15535787 0 0 Z " fill="#8B41D1" transform="translate(869,1827)"/>
<path d="M0 0 C0.33 0 0.66 0 1 0 C1.36263859 5.8022175 0.25684543 9.63999211 -2 15 C-3.3057939 10.80674634 -2.33775337 8.16189938 -1 4 C-0.65864073 2.66869885 -0.32074044 1.33641852 0 0 Z " fill="#797979" transform="translate(2380,1982)"/>
<path d="M0 0 C4.83628305 0.99043705 9.47618873 1.95698846 14 4 C14 4.33 14 4.66 14 5 C8.34388537 5.56561146 4.77357872 3.71391278 0 1 C0 0.67 0 0.34 0 0 Z " fill="#A666DA" transform="translate(1112,2183)"/>
<path d="M0 0 C0.8125 1.6875 0.8125 1.6875 1 4 C-1.4375 6.75 -1.4375 6.75 -4 9 C-3.46930939 5.17902761 -2.50298434 2.93828597 0 0 Z " fill="#7243F1" transform="translate(1079,1623)"/>
<path d="M0 0 C0.33 0.66 0.66 1.32 1 2 C-2.625 6.875 -2.625 6.875 -6 8 C-4.55746343 4.63408134 -2.66735273 2.48952921 0 0 Z " fill="#7043F0" transform="translate(1089,1611)"/>
<path d="M0 0 C6.52307692 -0.36923077 6.52307692 -0.36923077 8.9375 1.5 C9.288125 1.995 9.63875 2.49 10 3 C3.375 2.25 3.375 2.25 0 0 Z " fill="#8A61F2" transform="translate(1185,1754)"/>
</svg>
